<svg xmlns="http://www.w3.org/2000/svg" xmlns:xlink="http://www.w3.org/1999/xlink" viewBox="0 0 386.8 280.84">
  <defs>
    <style>
      .cls-1 {
        fill: none;
      }

      .cls-2 {
        opacity: 0.5;
      }

      .cls-3 {
        fill: url(#Degradado_sin_nombre_9219);
      }

      .cls-4 {
        fill: url(#Degradado_sin_nombre_9218);
      }

      .cls-10, .cls-5 {
        fill: #1f4395;
      }

      .cls-5 {
        opacity: 0.1;
      }

      .cls-15, .cls-16, .cls-25, .cls-26, .cls-33, .cls-35, .cls-36, .cls-37, .cls-38, .cls-39, .cls-40, .cls-41, .cls-42, .cls-43, .cls-44, .cls-45, .cls-46, .cls-5, .cls-54, .cls-55, .cls-56, .cls-57, .cls-58, .cls-59, .cls-60, .cls-61, .cls-62, .cls-63, .cls-64, .cls-65 {
        isolation: isolate;
      }

      .cls-6 {
        fill: #3d4f9d;
      }

      .cls-7 {
        fill: #5769af;
      }

      .cls-8 {
        fill: url(#Degradado_sin_nombre_9217);
      }

      .cls-9 {
        fill: #27357e;
      }

      .cls-11 {
        fill: #272254;
      }

      .cls-12 {
        fill: #29b8c8;
      }

      .cls-13, .cls-33 {
        fill: #f9c1ae;
      }

      .cls-14 {
        fill: url(#Degradado_sin_nombre_61);
      }

      .cls-15, .cls-16, .cls-25, .cls-26, .cls-33, .cls-35, .cls-36, .cls-37, .cls-38, .cls-39, .cls-40, .cls-41, .cls-42, .cls-43, .cls-44, .cls-45, .cls-46, .cls-54, .cls-55, .cls-56, .cls-57, .cls-58, .cls-59, .cls-60, .cls-61, .cls-62, .cls-63, .cls-64, .cls-65 {
        opacity: 0.4;
      }

      .cls-15 {
        fill: url(#Degradado_sin_nombre_61-2);
      }

      .cls-16 {
        fill: url(#Degradado_sin_nombre_61-3);
      }

      .cls-17 {
        fill: url(#Degradado_sin_nombre_59);
      }

      .cls-18 {
        fill: url(#Degradado_sin_nombre_59-2);
      }

      .cls-19 {
        fill: url(#Degradado_sin_nombre_59-3);
      }

      .cls-20 {
        fill: url(#Degradado_sin_nombre_61-4);
      }

      .cls-21 {
        fill: url(#Degradado_sin_nombre_61-5);
      }

      .cls-22 {
        fill: url(#Degradado_sin_nombre_59-4);
      }

      .cls-23 {
        clip-path: url(#clip-path);
      }

      .cls-24 {
        fill: url(#Degradado_sin_nombre_61-6);
      }

      .cls-25 {
        fill: url(#Degradado_sin_nombre_61-7);
      }

      .cls-26 {
        fill: url(#Degradado_sin_nombre_61-8);
      }

      .cls-27 {
        fill: url(#Degradado_sin_nombre_59-5);
      }

      .cls-28 {
        fill: url(#Degradado_sin_nombre_59-6);
      }

      .cls-29 {
        fill: url(#Degradado_sin_nombre_59-7);
      }

      .cls-30 {
        fill: url(#Degradado_sin_nombre_61-9);
      }

      .cls-31 {
        fill: url(#Degradado_sin_nombre_61-10);
      }

      .cls-32 {
        fill: url(#Degradado_sin_nombre_59-8);
      }

      .cls-34 {
        fill: url(#Degradado_sin_nombre_61-11);
      }

      .cls-35 {
        fill: url(#Degradado_sin_nombre_61-12);
      }

      .cls-36 {
        fill: url(#Degradado_sin_nombre_61-13);
      }

      .cls-37 {
        fill: url(#Degradado_sin_nombre_61-14);
      }

      .cls-38 {
        fill: url(#Degradado_sin_nombre_61-15);
      }

      .cls-39 {
        fill: url(#Degradado_sin_nombre_61-16);
      }

      .cls-40 {
        fill: url(#Degradado_sin_nombre_61-17);
      }

      .cls-41 {
        fill: url(#Degradado_sin_nombre_61-18);
      }

      .cls-42 {
        fill: url(#Degradado_sin_nombre_61-19);
      }

      .cls-43 {
        fill: url(#Degradado_sin_nombre_61-20);
      }

      .cls-44 {
        fill: url(#Degradado_sin_nombre_61-21);
      }

      .cls-45 {
        fill: url(#Degradado_sin_nombre_61-22);
      }

      .cls-46 {
        fill: url(#Degradado_sin_nombre_61-23);
      }

      .cls-47 {
        fill: url(#Degradado_sin_nombre_59-9);
      }

      .cls-48 {
        fill: url(#Degradado_sin_nombre_59-10);
      }

      .cls-49 {
        fill: url(#Degradado_sin_nombre_59-11);
      }

      .cls-50 {
        fill: url(#Degradado_sin_nombre_61-24);
      }

      .cls-51 {
        fill: url(#Degradado_sin_nombre_61-25);
      }

      .cls-52 {
        fill: url(#Degradado_sin_nombre_62);
      }

      .cls-53 {
        fill: url(#Degradado_sin_nombre_61-26);
      }

      .cls-54 {
        fill: url(#Degradado_sin_nombre_61-27);
      }

      .cls-55 {
        fill: url(#Degradado_sin_nombre_61-28);
      }

      .cls-56 {
        fill: url(#Degradado_sin_nombre_61-29);
      }

      .cls-57 {
        fill: url(#Degradado_sin_nombre_61-30);
      }

      .cls-58 {
        fill: url(#Degradado_sin_nombre_61-31);
      }

      .cls-59 {
        fill: url(#Degradado_sin_nombre_61-32);
      }

      .cls-60 {
        fill: url(#Degradado_sin_nombre_61-33);
      }

      .cls-61 {
        fill: url(#Degradado_sin_nombre_61-34);
      }

      .cls-62 {
        fill: url(#Degradado_sin_nombre_61-35);
      }

      .cls-63 {
        fill: url(#Degradado_sin_nombre_61-36);
      }

      .cls-64 {
        fill: url(#Degradado_sin_nombre_61-37);
      }

      .cls-65 {
        fill: url(#Degradado_sin_nombre_61-38);
      }

      .cls-66 {
        fill: url(#Degradado_sin_nombre_59-12);
      }

      .cls-67 {
        fill: url(#Degradado_sin_nombre_59-13);
      }

      .cls-68 {
        fill: url(#Degradado_sin_nombre_59-14);
      }

      .cls-69 {
        fill: url(#Degradado_sin_nombre_61-39);
      }

      .cls-70 {
        fill: url(#Degradado_sin_nombre_61-40);
      }

      .cls-71 {
        fill: url(#Degradado_sin_nombre_62-2);
      }

      .cls-72 {
        fill: #fff;
      }
    </style>
    <linearGradient id="Degradado_sin_nombre_9219" data-name="Degradado sin nombre 9219" x1="416.22" y1="189.52" x2="66.78" y2="189.52" gradientTransform="matrix(1, 0, 0, -1, 0, 467.05)" gradientUnits="userSpaceOnUse">
      <stop offset="0" stop-color="#154d9c" stop-opacity="0"/>
      <stop offset="1" stop-color="#20234a"/>
    </linearGradient>
    <linearGradient id="Degradado_sin_nombre_9218" data-name="Degradado sin nombre 9218" x1="-0.9" y1="190.86" x2="114.29" y2="190.86" gradientTransform="matrix(1, 0, 0, -1, 0, 467.05)" gradientUnits="userSpaceOnUse">
      <stop offset="0.01" stop-color="#154d9c" stop-opacity="0"/>
      <stop offset="1" stop-color="#20234a"/>
    </linearGradient>
    <linearGradient id="Degradado_sin_nombre_9217" data-name="Degradado sin nombre 9217" x1="159.93" y1="329.45" x2="213.6" y2="329.45" gradientTransform="matrix(1, 0, 0, -1, 0, 467.05)" gradientUnits="userSpaceOnUse">
      <stop offset="0" stop-color="#3d4f9d"/>
      <stop offset="1" stop-color="#27357e"/>
    </linearGradient>
    <linearGradient id="Degradado_sin_nombre_61" data-name="Degradado sin nombre 61" x1="245.37" y1="339.67" x2="211.08" y2="339.67" gradientTransform="matrix(1, 0.01, 0.01, -1, -14.82, 526.12)" gradientUnits="userSpaceOnUse">
      <stop offset="0" stop-color="#ffda16"/>
      <stop offset="1" stop-color="#f59a26"/>
    </linearGradient>
    <linearGradient id="Degradado_sin_nombre_61-2" x1="241.98" y1="339.66" x2="212.03" y2="339.66" xlink:href="#Degradado_sin_nombre_61"/>
    <linearGradient id="Degradado_sin_nombre_61-3" x1="249.64" y1="339.68" x2="199.07" y2="339.68" xlink:href="#Degradado_sin_nombre_61"/>
    <linearGradient id="Degradado_sin_nombre_59" data-name="Degradado sin nombre 59" x1="309.78" y1="326.48" x2="234.43" y2="326.48" gradientTransform="matrix(0, 1, 1, 0, -72.84, -74.82)" gradientUnits="userSpaceOnUse">
      <stop offset="0" stop-color="#ffda16"/>
      <stop offset="1" stop-color="#f8ed72"/>
    </linearGradient>
    <linearGradient id="Degradado_sin_nombre_59-2" x1="269.47" y1="339.67" x2="230.99" y2="339.67" gradientTransform="matrix(1, 0.01, 0.01, -1, -14.82, 526.12)" xlink:href="#Degradado_sin_nombre_59"/>
    <linearGradient id="Degradado_sin_nombre_59-3" x1="276.01" y1="326.48" x2="207.66" y2="326.48" gradientTransform="matrix(0, 1, 1, 0, -72.83, -74.82)" xlink:href="#Degradado_sin_nombre_59"/>
    <linearGradient id="Degradado_sin_nombre_61-4" x1="279.34" y1="307.33" x2="279.34" y2="370.62" xlink:href="#Degradado_sin_nombre_61"/>
    <linearGradient id="Degradado_sin_nombre_61-5" x1="267.8" y1="310.92" x2="267.8" y2="353.03" xlink:href="#Degradado_sin_nombre_61"/>
    <linearGradient id="Degradado_sin_nombre_59-4" x1="296.85" y1="339.71" x2="256.61" y2="339.71" gradientTransform="matrix(1, 0.01, 0.01, -1, -14.82, 526.12)" xlink:href="#Degradado_sin_nombre_59"/>
    <clipPath id="clip-path">
      <path class="cls-1" d="M193.1,182.7V99.27c-12.11-20.6-23.76-42.18-66.94,0v83.44C149.91,237.24,171.64,214.52,193.1,182.7Z"/>
    </clipPath>
    <linearGradient id="Degradado_sin_nombre_61-6" x1="157.01" y1="328.55" x2="122.72" y2="328.55" gradientTransform="matrix(1, 0, 0, -1, 0, 467.05)" xlink:href="#Degradado_sin_nombre_61"/>
    <linearGradient id="Degradado_sin_nombre_61-7" x1="153.61" y1="328.56" x2="123.67" y2="328.56" gradientTransform="matrix(1, 0, 0, -1, 0, 467.05)" xlink:href="#Degradado_sin_nombre_61"/>
    <linearGradient id="Degradado_sin_nombre_61-8" x1="161.27" y1="328.56" x2="110.7" y2="328.56" gradientTransform="matrix(1, 0, 0, -1, 0, 467.05)" xlink:href="#Degradado_sin_nombre_61"/>
    <linearGradient id="Degradado_sin_nombre_59-5" x1="221.98" y1="328.56" x2="146.62" y2="328.56" gradientTransform="matrix(1, 0, 0, -1, 0, 467.05)" xlink:href="#Degradado_sin_nombre_59"/>
    <linearGradient id="Degradado_sin_nombre_59-6" x1="181.12" y1="328.49" x2="142.63" y2="328.49" gradientTransform="matrix(1, 0, 0, -1, 0, 467.05)" xlink:href="#Degradado_sin_nombre_59"/>
    <linearGradient id="Degradado_sin_nombre_59-7" x1="188.2" y1="328.56" x2="119.85" y2="328.56" gradientTransform="matrix(1, 0, 0, -1, 0, 467.05)" xlink:href="#Degradado_sin_nombre_59"/>
    <linearGradient id="Degradado_sin_nombre_61-9" x1="190.4" y1="297.3" x2="190.4" y2="360.59" gradientTransform="matrix(1, 0, 0, -1, 0, 467.05)" xlink:href="#Degradado_sin_nombre_61"/>
    <linearGradient id="Degradado_sin_nombre_61-10" x1="178.82" y1="300.9" x2="178.82" y2="343" gradientTransform="matrix(1, 0, 0, -1, 0, 467.05)" xlink:href="#Degradado_sin_nombre_61"/>
    <linearGradient id="Degradado_sin_nombre_59-8" x1="208.49" y1="328.57" x2="168.24" y2="328.57" gradientTransform="matrix(1, 0, 0, -1, 0, 467.05)" xlink:href="#Degradado_sin_nombre_59"/>
    <linearGradient id="Degradado_sin_nombre_61-11" x1="-16147.67" y1="241.5" x2="-16147.67" y2="178.03" gradientTransform="translate(10.39 -15900.78) rotate(-90.57)" xlink:href="#Degradado_sin_nombre_61"/>
    <linearGradient id="Degradado_sin_nombre_61-12" x1="-16115.75" y1="221.91" x2="-16147.47" y2="221.91" gradientTransform="translate(-15811.34 467.05) rotate(180)" xlink:href="#Degradado_sin_nombre_61"/>
    <linearGradient id="Degradado_sin_nombre_61-13" x1="-16131.91" y1="245.79" x2="-16145.05" y2="245.79" gradientTransform="translate(-15811.34 467.05) rotate(180)" xlink:href="#Degradado_sin_nombre_61"/>
    <linearGradient id="Degradado_sin_nombre_61-14" x1="-16121.59" y1="227.97" x2="-16129.98" y2="227.97" gradientTransform="translate(-15811.34 467.05) rotate(180)" xlink:href="#Degradado_sin_nombre_61"/>
    <linearGradient id="Degradado_sin_nombre_61-15" x1="-16126.19" y1="239.85" x2="-16135.46" y2="239.85" gradientTransform="translate(-15811.34 467.05) rotate(180)" xlink:href="#Degradado_sin_nombre_61"/>
    <linearGradient id="Degradado_sin_nombre_61-16" x1="-16140.98" y1="250.79" x2="-16155.47" y2="250.79" gradientTransform="translate(-15811.34 467.05) rotate(180)" xlink:href="#Degradado_sin_nombre_61"/>
    <linearGradient id="Degradado_sin_nombre_61-17" x1="-16123.19" y1="233.89" x2="-16132.01" y2="233.89" gradientTransform="translate(-15811.34 467.05) rotate(180)" xlink:href="#Degradado_sin_nombre_61"/>
    <linearGradient id="Degradado_sin_nombre_61-18" x1="-16121.54" y1="215.99" x2="-16129.87" y2="215.99" gradientTransform="translate(-15811.34 467.05) rotate(180)" xlink:href="#Degradado_sin_nombre_61"/>
    <linearGradient id="Degradado_sin_nombre_61-19" x1="-16140.75" y1="192.88" x2="-16155.02" y2="192.88" gradientTransform="translate(-15811.34 467.05) rotate(180)" xlink:href="#Degradado_sin_nombre_61"/>
    <linearGradient id="Degradado_sin_nombre_61-20" x1="-16123.08" y1="210.01" x2="-16131.81" y2="210.01" gradientTransform="translate(-15811.34 467.05) rotate(180)" xlink:href="#Degradado_sin_nombre_61"/>
    <linearGradient id="Degradado_sin_nombre_61-21" x1="-16121.09" y1="222" x2="-16129.06" y2="222" gradientTransform="translate(-15811.34 467.05) rotate(180)" xlink:href="#Degradado_sin_nombre_61"/>
    <linearGradient id="Degradado_sin_nombre_61-22" x1="-16126.67" y1="204.03" x2="-16138.57" y2="204.03" gradientTransform="translate(-15811.34 467.05) rotate(180)" xlink:href="#Degradado_sin_nombre_61"/>
    <linearGradient id="Degradado_sin_nombre_61-23" x1="-16131.69" y1="198.02" x2="-16144.68" y2="198.02" gradientTransform="translate(-15811.34 467.05) rotate(180)" xlink:href="#Degradado_sin_nombre_61"/>
    <linearGradient id="Degradado_sin_nombre_59-9" x1="-1133.38" y1="274.88" x2="-1186.59" y2="274.88" gradientTransform="matrix(1.17, 0.01, 0.01, -1, 1702.82, 531.5)" xlink:href="#Degradado_sin_nombre_59"/>
    <linearGradient id="Degradado_sin_nombre_59-10" x1="-16109.7" y1="221.92" x2="-16141.5" y2="221.92" gradientTransform="translate(-15811.34 467.05) rotate(180)" xlink:href="#Degradado_sin_nombre_59"/>
    <linearGradient id="Degradado_sin_nombre_59-11" x1="-1157.73" y1="269.14" x2="-1206.01" y2="269.14" gradientTransform="matrix(0, 1.17, 1, 0, 75.94, 1607.22)" xlink:href="#Degradado_sin_nombre_59"/>
    <linearGradient id="Degradado_sin_nombre_61-24" x1="-16163.03" y1="221.83" x2="-16191.95" y2="221.83" gradientTransform="translate(-15811.34 467.05) rotate(180)" xlink:href="#Degradado_sin_nombre_61"/>
    <linearGradient id="Degradado_sin_nombre_61-25" x1="-821.97" y1="259.78" x2="-821.97" y2="289.51" gradientTransform="matrix(1.17, 0.01, 0.01, -1, 1306.61, 531.5)" xlink:href="#Degradado_sin_nombre_61"/>
    <linearGradient id="Degradado_sin_nombre_62" data-name="Degradado sin nombre 62" x1="343.01" y1="221.85" x2="371.86" y2="221.85" gradientTransform="matrix(1, 0, 0, -1, 3.33, 467.05)" gradientUnits="userSpaceOnUse">
      <stop offset="0" stop-color="#f8ed72"/>
      <stop offset="1" stop-color="#ffda16"/>
    </linearGradient>
    <linearGradient id="Degradado_sin_nombre_61-26" x1="-15942.98" y1="253.88" x2="-15942.98" y2="190.41" gradientTransform="translate(-15811.34 467.05) rotate(180)" xlink:href="#Degradado_sin_nombre_61"/>
    <linearGradient id="Degradado_sin_nombre_61-27" x1="-15908.5" y1="221.91" x2="-15940.22" y2="221.91" gradientTransform="translate(-15811.34 467.05) rotate(180)" xlink:href="#Degradado_sin_nombre_61"/>
    <linearGradient id="Degradado_sin_nombre_61-28" x1="-15924.68" y1="245.79" x2="-15937.81" y2="245.79" gradientTransform="translate(-15811.34 467.05) rotate(180)" xlink:href="#Degradado_sin_nombre_61"/>
    <linearGradient id="Degradado_sin_nombre_61-29" x1="-15914.35" y1="227.97" x2="-15922.75" y2="227.97" gradientTransform="translate(-15811.34 467.05) rotate(180)" xlink:href="#Degradado_sin_nombre_61"/>
    <linearGradient id="Degradado_sin_nombre_61-30" x1="-15918.96" y1="239.85" x2="-15928.23" y2="239.85" gradientTransform="translate(-15811.34 467.05) rotate(180)" xlink:href="#Degradado_sin_nombre_61"/>
    <linearGradient id="Degradado_sin_nombre_61-31" x1="-15933.73" y1="250.79" x2="-15948.23" y2="250.79" gradientTransform="translate(-15811.34 467.05) rotate(180)" xlink:href="#Degradado_sin_nombre_61"/>
    <linearGradient id="Degradado_sin_nombre_61-32" x1="-15915.95" y1="233.89" x2="-15924.77" y2="233.89" gradientTransform="translate(-15811.34 467.05) rotate(180)" xlink:href="#Degradado_sin_nombre_61"/>
    <linearGradient id="Degradado_sin_nombre_61-33" x1="-15914.29" y1="215.99" x2="-15922.63" y2="215.99" gradientTransform="translate(-15811.34 467.05) rotate(180)" xlink:href="#Degradado_sin_nombre_61"/>
    <linearGradient id="Degradado_sin_nombre_61-34" x1="-15933.52" y1="192.88" x2="-15947.78" y2="192.88" gradientTransform="translate(-15811.34 467.05) rotate(180)" xlink:href="#Degradado_sin_nombre_61"/>
    <linearGradient id="Degradado_sin_nombre_61-35" x1="-15915.84" y1="210.01" x2="-15924.58" y2="210.01" gradientTransform="translate(-15811.34 467.05) rotate(180)" xlink:href="#Degradado_sin_nombre_61"/>
    <linearGradient id="Degradado_sin_nombre_61-36" x1="-15913.86" y1="222" x2="-15921.81" y2="222" gradientTransform="translate(-15811.34 467.05) rotate(180)" xlink:href="#Degradado_sin_nombre_61"/>
    <linearGradient id="Degradado_sin_nombre_61-37" x1="-15919.42" y1="204.03" x2="-15931.33" y2="204.03" gradientTransform="translate(-15811.34 467.05) rotate(180)" xlink:href="#Degradado_sin_nombre_61"/>
    <linearGradient id="Degradado_sin_nombre_61-38" x1="-15924.45" y1="198.02" x2="-15937.45" y2="198.02" gradientTransform="translate(-15811.34 467.05) rotate(180)" xlink:href="#Degradado_sin_nombre_61"/>
    <linearGradient id="Degradado_sin_nombre_59-12" x1="-1311.52" y1="268.34" x2="-1364.73" y2="268.34" gradientTransform="matrix(0, 1.17, 1, 0, -130.49, 1814.44)" xlink:href="#Degradado_sin_nombre_59"/>
    <linearGradient id="Degradado_sin_nombre_59-13" x1="-15902.45" y1="221.92" x2="-15934.26" y2="221.92" gradientTransform="translate(-15811.34 467.05) rotate(180)" xlink:href="#Degradado_sin_nombre_59"/>
    <linearGradient id="Degradado_sin_nombre_59-14" x1="-1335.4" y1="267.93" x2="-1383.66" y2="267.93" gradientTransform="matrix(0, 1.17, 1, 0, -130.09, 1814.46)" xlink:href="#Degradado_sin_nombre_59"/>
    <linearGradient id="Degradado_sin_nombre_61-39" x1="-15955.79" y1="221.83" x2="-15984.71" y2="221.83" gradientTransform="translate(-15811.34 467.05) rotate(180)" xlink:href="#Degradado_sin_nombre_61"/>
    <linearGradient id="Degradado_sin_nombre_61-40" x1="-999.1" y1="258.57" x2="-999.1" y2="288.31" gradientTransform="matrix(1.17, 0.01, 0.01, -1, 1306.61, 531.5)" xlink:href="#Degradado_sin_nombre_61"/>
    <linearGradient id="Degradado_sin_nombre_62-2" x1="135.77" y1="221.85" x2="164.61" y2="221.85" xlink:href="#Degradado_sin_nombre_62"/>
  </defs>
  <title>svg_primerbitcoin</title>
  <g id="Capa_2" data-name="Capa 2">
    <g id="ayuda">
      <g id="Capa_2-2" data-name="Capa 2">
        <g id="Header">
          <g class="cls-2">
            <path class="cls-3" d="M355.12,275.85c-7.38,0-25.31.15-30.7.39-9.33-1.18-71.6-1.74-81.86-1.32-14-.42-31.62-.69-50.71-.69-45.95,0-83.21,1.49-83.21,3.31s37.28,3.3,83.21,3.3c19.09,0,36.67-.26,50.71-.69,10.28.43,23.14.69,37.12.69,24.2,0,34-.77,43.77-1.88,5.52.27,23.84.42,31.67.42,17.5,0,31.68-.79,31.68-1.76S372.62,275.85,355.12,275.85Z"/>
            <path class="cls-4" d="M93.29,276.19c0,1.82-20.89,3.3-46.64,3.3S0,278,0,276.19s20.88-3.3,46.65-3.3S93.29,274.36,93.29,276.19Z"/>
          </g>
          <rect class="cls-5" x="137.82" width="139.02" height="275.21" rx="6.18"/>
          <rect class="cls-6" x="127.31" width="139.02" height="275.21" rx="6.18"/>
          <rect class="cls-6" x="110.93" width="139.02" height="275.21" rx="6.18"/>
          <rect class="cls-7" x="119.14" y="31.37" width="139.02" height="212.47"/>
          <rect class="cls-8" x="167.77" y="77.21" width="25.34" height="120.79" rx="6.69"/>
          <path class="cls-9" d="M180.47,77.21a12.38,12.38,0,0,0-3.68.55,12.66,12.66,0,0,1,9,12.12v95.49a12.7,12.7,0,0,1-9,12.13,12.66,12.66,0,0,0,16.31-12.13V89.88A12.66,12.66,0,0,0,180.47,77.21Z"/>
          <path class="cls-9" d="M201.66,259.39A11.43,11.43,0,1,1,190.23,248h.05A11.41,11.41,0,0,1,201.66,259.39Z"/>
          <path class="cls-10" d="M258.27,189.7l-14.14-7s-48.23,33.34-17.42,85.33a11.46,11.46,0,0,0,4.91-3.24C217.41,228.53,238.09,199.85,258.27,189.7Z"/>
          <path class="cls-10" d="M269.22,188.46c1.71,7-3.7,48.38,44.36,29.43l4.08,3c-47.46,33.54-71.25-16.19-63.87-35.12C249.41,173.6,269.22,188.46,269.22,188.46Z"/>
          <path class="cls-11" d="M314.58,222.41s6,9,7.14,8.23-3.21-15.24-4.24-15.62-4.06,2.62-4.06,2.62Z"/>
          <path class="cls-11" d="M231.34,264.1l-4.84,3.23s-8.61,8.28-7.78,9.06,15.61-6.23,15.69-7.43S231.34,264.1,231.34,264.1Z"/>
          <path class="cls-12" d="M251.93,138.79s-5.24-3.92-13.36.86-3.18,19.24-12.91,27.09C220.41,171,217,169.9,217,169.9l-1.35,7.52s2.7,3.66,13.73-2.8c8.9-5.19,7.85-14,8.58-20.36,1.8,8.34,4.37,24.11-3.66,35.75,5.95,5.89,20-2.34,35.59,4.25C274.09,168.78,264.11,145.7,251.93,138.79Z"/>
          <path class="cls-13" d="M235.85,125.54c-.14,5.48,2.87,14.33,8.64,10.6A15.06,15.06,0,0,0,251,126.05S241.57,103.88,235.85,125.54Z"/>
          <path class="cls-10" d="M246.6,130.17c.61-2.53,4.13.3.27,2.12,2.29,3.3,12.68-10.54,4.7-12.41.39-5.21-5.25-8.7-11.77-7-5.64,1.43-5.24,7-11,4.48-4.17-1.79-2.16,11,5.2,7.85,4.9-2.09,5.3,2.73,8.83,2a2.82,2.82,0,0,1,3.59,1.73A3,3,0,0,1,246.6,130.17Z"/>
          <path class="cls-13" d="M244.1,133.24c-.55,3.74,0,8.67-2,8.3s-2.67-8.52-2.31-8.65C241.26,132.94,242.69,133.05,244.1,133.24Z"/>
          <path class="cls-14" d="M253.05,233.28l.51-88.4-7.9-.06c-20.77-.12-37.73,19.61-37.87,44s16.59,44.3,37.36,44.42Z"/>
          <path class="cls-15" d="M209.94,188.82c.15-24.38,17.05-44,37.78-44h-2c-20.77-.12-37.73,19.61-37.87,44s16.59,44.3,37.36,44.42h2.14C226.57,233.12,209.81,213.23,209.94,188.82Z"/>
          <path class="cls-16" d="M225.59,151.52l8.24,0a35.78,35.78,0,0,0-4.47,4.14l-8.54,0A39.91,39.91,0,0,1,225.59,151.52Zm-8.18,37.34c0-.7,0-1.39.06-2.08l-9.61-.05c0,.68-.05,1.38-.05,2.08v2.08l9.6.05C217.42,190.28,217.41,189.56,217.41,188.86Zm5.88-24.37a45.92,45.92,0,0,1,2.48-4.15H217a44.64,44.64,0,0,0-2.7,4.15Zm-3.55,8.83c.42-1.42.9-2.81,1.43-4.16h-9.25c-.58,1.34-1.1,2.73-1.58,4.16Zm22,57.76-8.16-.05a33.3,33.3,0,0,0,5.28,1.55h0l11.55.07a26.09,26.09,0,0,1-8.75-1.59Zm-2.46-85.67A33.52,33.52,0,0,0,234,146.9h8.15a26.25,26.25,0,0,1,8.73-1.48l-11.54,0Zm-14.2,80.89,8.23,0a35,35,0,0,1-4.41-4.2l-8.54-.05a38.57,38.57,0,0,0,4.75,4.2Zm.25-8.83a42.34,42.34,0,0,1-2.43-4.17l-9.05-.06a42.56,42.56,0,0,0,2.63,4.19Zm-7-17.65c-.26-1.37-.47-2.76-.63-4.18l-9.56,0c.17,1.42.41,2.81.69,4.17Zm-.55-17.65c.17-1.42.4-2.8.68-4.16L209,178c-.3,1.36-.55,2.75-.74,4.16Zm3.06,26.48c-.52-1.36-1-2.75-1.39-4.17l-9.39-.06c.45,1.43,1,2.83,1.53,4.18Z"/>
          <ellipse class="cls-17" cx="253.64" cy="189.07" rx="44.21" ry="37.62" transform="matrix(0.01, -1, 1, 0.01, 63.12, 441.62)"/>
          <path class="cls-18" d="M217.65,188.86c.14-24.09,16.68-43.58,37.07-44h-.81c-20.77-.13-37.73,19.61-37.88,44s16.6,44.31,37.37,44.43h.81C233.81,232.64,217.51,213,217.65,188.86Z"/>
          <ellipse class="cls-19" cx="253.65" cy="189.07" rx="34.44" ry="29.31" transform="translate(63.13 441.63) rotate(-89.67)"/>
          <path class="cls-20" d="M253.85,154.63h-.64c15.88.5,28.56,15.83,28.44,34.6s-12.91,33.93-28.85,34.26h.66c16.18.1,29.43-15.25,29.5-34.27S270.05,154.72,253.85,154.63Z"/>
          <path class="cls-21" d="M269,197.92c0-4.49-2.63-8.51-6.4-9.29,3.26-1.19,5.71-4.07,5.74-8.73,0-5.37-3.4-9.4-9.65-9.81v-3.92h-3.49V170H252.9v-3.84h-3.5V170h-5.57l-.23,38.26h5.57v3.84h3.51v-3.84H255v3.84h3.49v-3.85C265.1,208,269,203.84,269,197.92ZM261.53,181c0,3.13-1.84,4.76-5,4.74h-6.11l.06-9.59h6.11c3.15,0,4.95,1.79,4.93,4.85Zm-4.46,21h-6.74l.07-10.3H257c3.25,0,5.29,2,5.27,5.29s-1.93,5-5.18,5Z"/>
          <path class="cls-22" d="M269.72,197.92c0-4.48-2.62-8.5-6.38-9.29,3.24-1.19,5.7-4.07,5.73-8.72,0-5.37-3.4-9.4-9.66-9.87v-3.92h-3.5V170H253.6v-3.83h-3.5V170h-5.57l-.23,38.21h5.58V212h3.5v-3.83h2.32V212h3.5v-3.85C265.8,208,269.72,203.84,269.72,197.92ZM262.23,181c0,3.12-1.84,4.76-5,4.74h-6.11l.06-9.59h6.11c3.16,0,5,1.78,4.95,4.85ZM257.77,202H251l.06-10.29h6.59c3.24,0,5.28,2,5.27,5.28s-1.93,5-5.17,5Z"/>
          <path class="cls-13" d="M253.12,174.26s-1.19.38-1.87.58a4.3,4.3,0,0,0-2,.84,2.07,2.07,0,0,0,0,2.44,3.54,3.54,0,0,0,2,1.62c1.33.39,4.37-1.16,5.84-2"/>
          <path class="cls-12" d="M247,137.31c19.14-1.23,41.78,30.19,10.88,41.31-1.81-.84-5.16-3.71-5.53-5,25.65-9.8,9-27.17-.22-28.75"/>
          <path class="cls-13" d="M222.23,154.67c-.69-1.78-2.68-1.74-4.06-1.28a4.91,4.91,0,0,0-2.89,3.13,10.56,10.56,0,0,0-.37,4.57c.06.67.33,1.51,1,1.6a1.26,1.26,0,0,0,.77-.24,12.15,12.15,0,0,0,3.67-2.94C221.3,158.2,222.93,156.46,222.23,154.67Z"/>
          <g class="cls-23">
            <g>
              <path class="cls-24" d="M175.74,182.71V94.3h-7.89c-20.78,0-37.63,19.79-37.63,44.2s16.85,44.22,37.63,44.22Z"/>
              <path class="cls-25" d="M132.41,138.49c0-24.37,16.79-44.14,37.53-44.2h-2c-20.78,0-37.63,19.79-37.63,44.2s16.85,44.22,37.63,44.22H170C149.2,182.71,132.41,162.91,132.41,138.49Z"/>
              <path class="cls-26" d="M147.79,101.1H156a35.67,35.67,0,0,0-4.44,4.16h-8.54A39.1,39.1,0,0,1,147.79,101.1Zm-8,37.39v-2.08h-9.59v4.17h9.59C139.84,139.88,139.82,139.2,139.82,138.49Zm5.71-24.39a46.92,46.92,0,0,1,2.45-4.17h-8.82a40.4,40.4,0,0,0-2.67,4.17ZM142,122.92c.42-1.43.89-2.82,1.42-4.16h-9.26c-.57,1.35-1.09,2.73-1.55,4.16Zm22.37,57.63h-8.15a33.51,33.51,0,0,0,5.28,1.52h11.59a26.19,26.19,0,0,1-8.72-1.52Zm-2.87-85.63a33.47,33.47,0,0,0-5.28,1.51h8.15a26.44,26.44,0,0,1,8.72-1.52H161.52Zm-13.73,81H156a35,35,0,0,1-4.44-4.17h-8.54a38.34,38.34,0,0,0,4.74,4.17Zm.19-8.83a46.92,46.92,0,0,1-2.45-4.17h-9.05a43.35,43.35,0,0,0,2.67,4.17Zm-7.11-17.65c-.26-1.37-.48-2.76-.64-4.17h-9.57q.28,2.12.72,4.17Zm-.64-17.66c.16-1.41.38-2.8.64-4.17h-9.44c-.3,1.37-.53,2.76-.72,4.17Zm3.21,26.48c-.53-1.35-1-2.73-1.42-4.16h-9.39c.46,1.42,1,2.81,1.55,4.16Z"/>
              <ellipse class="cls-27" cx="176.07" cy="138.49" rx="37.62" ry="44.21"/>
              <path class="cls-28" d="M140.07,138.49c0-24.1,16.41-43.68,36.81-44.14h-.81c-20.77,0-37.62,19.8-37.62,44.21s16.85,44.21,37.62,44.21h.81C156.48,182.18,140.07,162.59,140.07,138.49Z"/>
              <ellipse class="cls-29" cx="176.07" cy="138.49" rx="29.31" ry="34.44"/>
              <path class="cls-30" d="M176.07,104.05h-.65c15.89.42,28.66,15.7,28.66,34.42s-12.75,34-28.66,34.43h.65c16.19,0,29.31-15.42,29.31-34.45S192.24,104.05,176.07,104.05Z"/>
              <path class="cls-31" d="M191.49,147.25c0-4.48-2.67-8.49-6.44-9.25,3.25-1.21,5.68-4.11,5.68-8.76,0-5.37-3.45-9.38-9.7-9.81v-3.92h-3.5v3.84h-2.32v-3.84h-3.5v3.84h-5.57v38.26h5.57v3.84h3.5v-3.84h2.32v3.84H181v-3.86C187.63,157.37,191.49,153.17,191.49,147.25Zm-7.59-16.86c0,3.12-1.81,4.77-5,4.77h-6.11v-9.62h6.11C182.09,125.54,183.9,127.32,183.9,130.39Zm-4.34,21h-6.73V141.07h6.59c3.25,0,5.3,2,5.3,5.25S182.8,151.36,179.56,151.36Z"/>
              <path class="cls-32" d="M192.24,147.25c0-4.48-2.67-8.49-6.45-9.25,3.25-1.21,5.68-4.11,5.68-8.76,0-5.37-3.45-9.38-9.7-9.81v-3.92h-3.5v3.84H176v-3.84h-3.49v3.84h-5.58v38.26h5.58v3.84H176v-3.84h2.31v3.84h3.5v-3.86C188.32,157.37,192.24,153.17,192.24,147.25Zm-7.59-16.86c0,3.12-1.82,4.77-5,4.77h-6.11v-9.62h6.11c3.12,0,4.94,1.78,4.94,4.85Zm-4.35,21h-6.73V141.07h6.59c3.25,0,5.3,2,5.3,5.25s-1.93,5-5.19,5Z"/>
            </g>
          </g>
          <path class="cls-13" d="M69.8,194.06l11.34-6.73s19.28,36.35,4.35,83.49c-2.18.75-5.07-1-5.07-1C84.42,235.49,81.52,209.16,69.8,194.06Z"/>
          <path class="cls-33" d="M85.41,213.39c1.31.12,2.62.23,3.92.3-2.88-16.31-8.19-26.36-8.19-26.36L69.8,194a52.88,52.88,0,0,1,8.83,18.82A49.69,49.69,0,0,1,85.41,213.39Z"/>
          <path class="cls-11" d="M80.43,269.82l5.07,1s8.82,4.48,7.84,5.16-15.08.12-15-1S80.43,269.82,80.43,269.82Z"/>
          <path class="cls-13" d="M67.68,181.86l11.08,5.89S75,234.83,27.1,239.15a9.17,9.17,0,0,1-.2-4.68C56.89,226.75,67.21,198,67.68,181.86Z"/>
          <path class="cls-33" d="M70.88,211.76a65.46,65.46,0,0,0,7.85-24l-11.08-5.89a60.92,60.92,0,0,1-8,27.36C63.83,208.64,69.12,210.29,70.88,211.76Z"/>
          <path class="cls-11" d="M26.86,234.46l.38,4.79s-6.38,12.39-7.5,12.2.94-16.67,1.84-17.42S26.86,234.46,26.86,234.46Z"/>
          <path class="cls-13" d="M130.78,146.07c4.55-3.92,9-4.26,8.07-2.64a45.27,45.27,0,0,1-4.24,5.23s-4.28,2.79-4.75.66A3.28,3.28,0,0,1,130.78,146.07Z"/>
          <path class="cls-10" d="M63.75,179c-8.49,7.3-8,26.06-11.9,28.83,4.71,1.18,10.85-3.46,26.8.68C89.33,211.29,96.94,210,96.94,210c-2.25-10.17-4.18-16.44-9.41-25.5C82.49,175.72,63.75,179,63.75,179Z"/>
          <path class="cls-10" d="M85.69,125.12c-1.32-2.39-7-3.22-10.59-2.43-5.2,1.15-9,4.67-13,.73-4.7-4.64-16.53-5.8-15.51,4.44,1.18,11.84,17.45,8.06,24.23,13.61,2.17,1.79,5.47,1.9,8.23,1.38,1.53-.29,3-1,4.53-1.15,1.14-.07,2.28.23,3.44.27,1.55.06,3.25-.32,4.56.52"/>
          <path class="cls-13" d="M94.31,137.75c-.83,5.16-5.21,12.93-10,8.41a14.37,14.37,0,0,1-4.31-10.59S92.77,116.45,94.31,137.75Z"/>
          <path class="cls-10" d="M83.43,140.26c-.13-2.49-3.93-.47-.63,2-2.74,2.68-10-12.11-2.22-12.45.55-4.9,6.46-7.22,12.24-4.54,5,2.33,3.68,7.43,9.48,6.13,4.22-1,.09,10.65-6.26,6.43-4.25-2.83-5.44,1.62-8.59.35a2.68,2.68,0,0,0-4,2.12Z"/>
          <path class="cls-12" d="M130.78,146.07c-2.94,2.87-22.46,9.41-39,5-1.75-.46-4.49-3.06-6.26-3.64-13-4.56-40.53,1.41-52.37,8.22l.8,5.7s12.08-7.63,33.53-7.43c-5.65,5.82-11.16,21.43-12.9,27.13C60.19,187,77.1,185,89.85,185c.34-8-4.72-22.82-.36-25.09,10.07,2.1,28.8,3,45.12-11.28C134.83,148.47,130.81,147.18,130.78,146.07Z"/>
          <path class="cls-13" d="M33.11,155.67c-8.95,3-7.19,7.05-3.92,6.37a24.29,24.29,0,0,1,4.73-.67Z"/>
          <path class="cls-13" d="M83.88,142.27c-.66,3.54-2.67,7.84-.78,8.1s5.06-6.87,4.78-7.07A36.66,36.66,0,0,0,83.88,142.27Z"/>
          <ellipse class="cls-34" cx="338.91" cy="245.22" rx="31.22" ry="30.99" transform="translate(91.69 582.68) rotate(-89.66)"/>
          <path class="cls-35" d="M339.07,214h.5a31.2,31.2,0,0,0-.24,62.38h-.62a31.22,31.22,0,0,1,.36-62.44Z"/>
          <path class="cls-36" d="M328.64,219.87a26.36,26.36,0,0,0-3.18,2.79h-7.95a30.88,30.88,0,0,1,3.36-2.79Z"/>
          <path class="cls-37" d="M308.29,240.49a27.39,27.39,0,0,1,.55-2.81h6.57c-.2.92-.36,1.86-.49,2.81Z"/>
          <path class="cls-38" d="M320.55,225.8a31.71,31.71,0,0,0-1.77,2.82h-6.09a32.08,32.08,0,0,1,2-2.81Z"/>
          <path class="cls-39" d="M326.25,216.76a23.12,23.12,0,0,1,2.55-1h9.74a19.65,19.65,0,0,0-6.23,1Z"/>
          <path class="cls-40" d="M317.27,231.76c-.38.91-.72,1.85-1,2.81h-6.45a28,28,0,0,1,1.18-2.8Z"/>
          <path class="cls-41" d="M314.84,249.66c.11,1,.26,1.89.45,2.82h-6.55a28.64,28.64,0,0,1-.52-2.82Z"/>
          <path class="cls-42" d="M332,273.65a19.9,19.9,0,0,0,6.21,1.06h-9.49c-.88-.32-1.76-.66-2.6-1Z"/>
          <path class="cls-43" d="M316.12,255.63c.29,1,.62,1.91,1,2.82h-6.26a28.73,28.73,0,0,1-1.15-2.82Z"/>
          <path class="cls-44" d="M308,243.64h6.67v2.82H308c0-.48-.06-1-.06-1.45S308,244.1,308,243.64Z"/>
          <path class="cls-45" d="M320.9,261.62a31.57,31.57,0,0,0,1.74,2.83h-8.15a30.49,30.49,0,0,1-2-2.84Z"/>
          <path class="cls-46" d="M325.19,267.61a24.94,24.94,0,0,0,3.15,2.84h-7.67a31.52,31.52,0,0,1-3.36-2.84Z"/>
          <path class="cls-47" d="M376.07,245.38A31,31,0,1,1,345.26,214,31,31,0,0,1,376.07,245.38Z"/>
          <path class="cls-48" d="M345.25,214h.57a31.2,31.2,0,0,0-.2,62.37h-.74a31.22,31.22,0,1,1,.37-62.44Z"/>
          <ellipse class="cls-49" cx="345.08" cy="245.2" rx="24.32" ry="24.15" transform="translate(97.9 588.86) rotate(-89.67)"/>
          <path class="cls-50" d="M368.07,245.34a24.22,24.22,0,0,0-23.49-24.43h.65a24.33,24.33,0,0,1-.29,48.64h-.51A24.23,24.23,0,0,0,368.07,245.34Z"/>
          <path class="cls-51" d="M358.11,251.46a6.56,6.56,0,0,0-5.26-6.57,6.22,6.22,0,0,0,4.7-6.16c0-3.8-2.8-6.63-7.95-7V229h-2.88v2.72H344.8V229h-2.88v2.72h-4.59l-.16,27h4.59v2.71h2.89v-2.72h2v2.71h2.88v-2.73C354.89,258.58,358.09,255.64,358.11,251.46Zm-6.19-12c0,2.2-1.51,3.36-4.11,3.34h-5v-6.77h5c2.64,0,4.13,1.28,4.11,3.43Zm-3.65,14.78h-5.56l.05-7.26h5.43c2.68,0,4.35,1.42,4.34,3.73s-1.59,3.55-4.26,3.53Z"/>
          <path class="cls-52" d="M358.88,251.46a6.59,6.59,0,0,0-5.28-6.56,6.25,6.25,0,0,0,4.72-6.16c0-3.8-2.81-6.64-8-7V229H347.5v2.71h-1.9V229h-2.89v2.71h-4.59l-.15,27h4.59v2.72h2.88V258.7h1.9v2.71h2.88v-2.73C355.65,258.58,358.85,255.64,358.88,251.46Zm-6.19-12c0,2.21-1.51,3.36-4.11,3.35h-5v-6.77h5c2.64,0,4.12,1.27,4.11,3.42ZM349,254.3h-5.54V247h5.43c2.67,0,4.36,1.41,4.35,3.73S351.7,254.31,349,254.3Z"/>
          <path class="cls-53" d="M162.64,245.38A31,31,0,1,1,131.83,214,31,31,0,0,1,162.64,245.38Z"/>
          <path class="cls-54" d="M131.83,214h.49a31.2,31.2,0,0,0-.22,62.38h-.63a31.22,31.22,0,0,1,.36-62.44Z"/>
          <path class="cls-55" d="M121.4,219.87a24.73,24.73,0,0,0-3.17,2.79h-8a31.1,31.1,0,0,1,3.38-2.79Z"/>
          <path class="cls-56" d="M101,240.49c.15-1,.33-1.89.56-2.81h6.56c-.19.92-.35,1.86-.48,2.81Z"/>
          <path class="cls-57" d="M113.31,225.8a31.71,31.71,0,0,0-1.77,2.82h-6.09a30.06,30.06,0,0,1,2-2.81Z"/>
          <path class="cls-58" d="M119,216.76a24.08,24.08,0,0,1,2.56-1h9.73a19.36,19.36,0,0,0-6.22,1Z"/>
          <path class="cls-59" d="M110,231.76a29.37,29.37,0,0,0-1,2.81h-6.45a30.09,30.09,0,0,1,1.18-2.8Z"/>
          <path class="cls-60" d="M107.62,249.66c.12,1,.27,1.89.46,2.82h-6.55c-.22-.92-.39-1.86-.53-2.82Z"/>
          <path class="cls-61" d="M124.72,273.65a19.63,19.63,0,0,0,6.22,1.06h-9.51c-.88-.32-1.75-.66-2.6-1Z"/>
          <path class="cls-62" d="M108.87,255.63c.29,1,.63,1.91,1,2.82h-6.26a28.65,28.65,0,0,1-1.14-2.82Z"/>
          <path class="cls-63" d="M100.73,243.64h6.68v2.82h-6.67c0-.48-.07-1-.06-1.45S100.71,244.1,100.73,243.64Z"/>
          <path class="cls-64" d="M113.67,261.62a29.33,29.33,0,0,0,1.73,2.83h-8.16a32.54,32.54,0,0,1-2-2.84Z"/>
          <path class="cls-65" d="M118,267.61a26.4,26.4,0,0,0,3.14,2.84h-7.67a31.3,31.3,0,0,1-3.34-2.84Z"/>
          <ellipse class="cls-66" cx="137.85" cy="245.22" rx="31.22" ry="30.99" transform="translate(-108.18 381.61) rotate(-89.66)"/>
          <path class="cls-67" d="M138,214h.59a31.2,31.2,0,0,0-.22,62.37h-.72a31.22,31.22,0,1,1,.35-62.44h0Z"/>
          <ellipse class="cls-68" cx="137.85" cy="245.19" rx="24.32" ry="24.15" transform="translate(-108.14 381.63) rotate(-89.67)"/>
          <path class="cls-69" d="M160.85,245.34a24.21,24.21,0,0,0-23.54-24.43H138a24.32,24.32,0,0,1-.27,48.64h-.52A24.21,24.21,0,0,0,160.85,245.34Z"/>
          <path class="cls-70" d="M150.87,251.46a6.57,6.57,0,0,0-5.27-6.57,6.25,6.25,0,0,0,4.72-6.16c0-3.8-2.81-6.63-8-7V229h-2.88v2.72h-2V229h-2.88v2.72h-4.59l-.16,27h4.59v2.71h2.88v-2.72h2v2.71h2.89v-2.73C147.65,258.58,150.85,255.64,150.87,251.46Zm-6.18-12c0,2.2-1.52,3.36-4.11,3.34h-5v-6.77h5c2.62,0,4.12,1.28,4.11,3.43ZM141,254.29h-5.54V247h5.43c2.67,0,4.36,1.42,4.34,3.73s-1.55,3.55-4.23,3.53Z"/>
          <path class="cls-71" d="M151.63,251.46a6.56,6.56,0,0,0-5.27-6.56,6.23,6.23,0,0,0,4.71-6.16c0-3.8-2.8-6.64-7.95-7V229h-2.86v2.71h-2V229h-2.88v2.71h-4.59l-.16,27h4.59v2.72h2.88V258.7h2v2.71H143v-2.73C148.41,258.58,151.6,255.64,151.63,251.46Zm-6.19-12c0,2.21-1.51,3.36-4.11,3.35h-5v-6.77h5c2.64,0,4.13,1.27,4.11,3.42Zm-3.65,14.79h-5.56V247h5.43c2.68,0,4.35,1.41,4.34,3.73s-1.55,3.54-4.21,3.53Z"/>
          <path class="cls-72" d="M333.17,194.51h-1.76v-2.68h1.72a1.28,1.28,0,0,1,1.39,1.15v.23a1.24,1.24,0,0,1-1.14,1.31Z"/>
        </g>
      </g>
    </g>
  </g>
</svg>
